<?xml version="1.0" encoding="UTF-8"?>
<svg width="205px" height="60px" viewBox="0 0 205 60" version="1.1" xmlns="http://www.w3.org/2000/svg" xmlns:xlink="http://www.w3.org/1999/xlink">
    <!-- Generator: Sketch 46 (44423) - http://www.bohemiancoding.com/sketch -->
    <title>logo</title>
    <desc>Created with Sketch.</desc>
    <defs></defs>
    <g id="v03" stroke="none" stroke-width="1" fill="none" fill-rule="evenodd">
        <g id="home" transform="translate(-159.000000, -20.000000)" fill="#FFFFFF">
            <g id="header" transform="translate(139.000000, 0.000000)">
                <g id="logo" transform="translate(20.000000, 20.000000)">
                    <path d="M83.154,21.064 C82.326,20.668 81.93,19.948 81.75,19.228 C81.678,18.94 81.786,18.796 82.146,18.796 C85.134,18.94 88.95,17.896 90.966,17.896 C92.514,17.896 93.45,18.616 93.918,19.732 C94.026,20.02 93.954,20.272 93.486,20.272 C90.786,20.236 88.266,20.956 86.07,21.28 C84.81,23.332 83.118,26.248 81.354,29.488 C82.29,29.308 83.118,29.236 83.766,29.2 C85.566,29.092 86.466,29.848 86.79,30.928 C86.898,31.252 86.826,31.468 86.394,31.468 C84.594,31.432 81.822,31.972 79.77,32.476 C78.402,35.14 77.07,37.84 76.026,40.252 C75.882,40.612 75.666,40.612 75.414,40.396 C74.73,39.82 74.37,38.668 75.126,36.436 C76.206,33.268 79.986,26.212 83.154,21.064 Z M100.182,28.3 C100.65,27.436 101.082,26.68 101.478,26.104 C101.802,25.636 102.09,25.564 102.342,25.888 C102.882,26.536 103.17,28.084 102.306,29.884 C101.514,31.504 99.714,34.204 98.85,36.112 C97.95,38.128 97.914,39.676 99.138,39.604 C100.614,39.532 102.594,37.084 103.854,34.6 C104.034,34.276 104.286,34.24 104.43,34.564 C104.574,34.888 104.574,35.788 104.106,36.796 C103.17,38.776 100.902,40.756 98.922,40.648 C96.978,40.54 95.97,39.388 95.97,37.696 C94.818,39.172 93.198,40.504 91.47,40.504 C88.122,40.504 87.438,35.932 90.426,31.576 C93.342,27.328 96.186,25.708 97.986,25.708 C99.534,25.708 100.254,26.896 100.182,28.3 Z M97.05,33.88 C99.318,29.92 99.642,27.688 98.598,27.58 C97.446,27.472 94.818,29.812 92.838,33.016 C90.93,36.112 90.462,39.28 91.866,39.316 C93.342,39.352 95.214,37.048 97.05,33.88 Z M107.698,32.8 C106.258,36.328 105.862,39.316 107.482,39.46 C109.21,39.604 111.73,37.012 113.134,34.24 C113.386,33.772 113.782,33.736 113.926,34.24 C114.106,34.816 113.962,35.608 113.566,36.472 C113.062,37.552 110.434,40.54 107.554,40.468 C105.07,40.396 103.738,38.668 104.566,34.78 C105.898,28.516 110.002,22 113.674,18.184 C114.214,17.608 114.718,17.536 115.222,18.004 C116.266,18.94 116.482,20.272 116.05,21.964 C114.934,26.392 110.902,30.712 107.698,32.8 Z M108.346,31.252 C113.278,27.256 115.294,21.496 114.826,21.208 C114.358,20.92 111.694,24.916 109.21,29.524 C108.886,30.1 108.598,30.676 108.346,31.252 Z M126.114,28.3 C126.582,27.436 127.014,26.68 127.41,26.104 C127.734,25.636 128.022,25.564 128.274,25.888 C128.814,26.536 129.102,28.084 128.238,29.884 C127.446,31.504 125.646,34.204 124.782,36.112 C123.882,38.128 123.846,39.676 125.07,39.604 C126.546,39.532 128.526,37.084 129.786,34.6 C129.966,34.276 130.218,34.24 130.362,34.564 C130.506,34.888 130.506,35.788 130.038,36.796 C129.102,38.776 126.834,40.756 124.854,40.648 C122.91,40.54 121.902,39.388 121.902,37.696 C120.75,39.172 119.13,40.504 117.402,40.504 C114.054,40.504 113.37,35.932 116.358,31.576 C119.274,27.328 122.118,25.708 123.918,25.708 C125.466,25.708 126.186,26.896 126.114,28.3 Z M122.982,33.88 C125.25,29.92 125.574,27.688 124.53,27.58 C123.378,27.472 120.75,29.812 118.77,33.016 C116.862,36.112 116.394,39.28 117.798,39.316 C119.274,39.352 121.146,37.048 122.982,33.88 Z M138.806,21.064 C137.978,20.668 137.582,19.948 137.402,19.228 C137.33,18.94 137.438,18.796 137.798,18.796 C140.786,18.94 144.602,17.896 146.618,17.896 C148.166,17.896 149.102,18.616 149.57,19.732 C149.678,20.02 149.606,20.272 149.138,20.272 C146.438,20.236 143.918,20.956 141.722,21.28 C140.462,23.332 138.77,26.248 137.006,29.488 C137.942,29.308 138.77,29.236 139.418,29.2 C141.218,29.092 142.118,29.848 142.442,30.928 C142.55,31.252 142.478,31.468 142.046,31.468 C140.246,31.432 137.474,31.972 135.422,32.476 C134.054,35.14 132.722,37.84 131.678,40.252 C131.534,40.612 131.318,40.612 131.066,40.396 C130.382,39.82 130.022,38.668 130.778,36.436 C131.858,33.268 135.638,26.212 138.806,21.064 Z M150.11,28.624 C151.262,28.48 152.486,27.904 153.818,26.968 C154.25,26.68 154.538,26.608 154.79,26.896 C155.474,27.652 156.338,29.236 155.294,30.424 C153.674,32.26 151.91,34.528 151.334,36.4 C150.758,38.272 151.19,39.676 152.234,39.712 C153.638,39.784 155.366,37.552 156.518,34.96 C156.662,34.672 156.878,34.636 157.022,34.924 C157.202,35.32 157.238,36.184 156.842,37.156 C156.014,39.244 153.926,40.756 152.018,40.684 C149.426,40.576 148.382,38.2 149.282,35.5 C150.074,33.124 152.162,30.568 153.602,28.912 C152.018,29.956 150.47,30.28 149.39,30.28 C148.022,32.8 144.566,37.912 143.882,41.188 C143.81,41.512 143.594,41.692 143.27,41.368 C142.226,40.288 142.226,38.632 143.198,36.796 C144.026,35.212 146.438,31.828 147.77,29.92 C145.718,28.588 148.85,24.34 150.182,24.304 C151.298,24.268 151.01,26.356 150.11,28.624 Z M160.362,33.844 C159.21,37.156 160.074,39.424 161.982,39.532 C164.97,39.676 167.598,36.796 169.146,34.42 C169.326,34.132 169.614,34.132 169.758,34.456 C169.902,34.744 169.794,35.752 169.146,36.688 C167.634,38.884 164.862,40.54 162.09,40.576 C157.518,40.648 155.934,36.148 158.274,31.504 C160.614,26.86 164.286,24.988 166.086,26.032 C166.986,26.572 167.634,27.112 168.21,27.904 C168.858,28.768 168.57,30.964 167.058,32.8 C165.294,34.96 162.882,35.896 160.362,33.844 Z M160.686,33.052 C162.45,34.168 163.926,32.62 164.97,31.252 C166.122,29.74 166.914,27.868 166.41,27.472 C165.654,26.86 162.666,29.02 160.974,32.44 C160.866,32.656 160.758,32.872 160.686,33.052 Z M176.626,37.084 C175.366,38.776 173.458,40.612 171.442,40.468 C168.886,40.288 168.814,37.624 169.606,35.248 C170.398,32.872 172.234,29.344 174.574,26.068 C174.862,25.672 175.222,25.708 175.51,26.032 C176.302,27.22 176.122,28.84 174.826,30.892 C173.494,33.016 172.774,34.456 172.018,36.184 C171.262,37.948 171.37,39.244 172.198,39.316 C173.602,39.424 175.582,36.904 177.526,33.772 C179.794,30.1 180.838,27.616 181.99,26.068 C182.35,25.564 182.602,25.492 182.89,25.852 C183.43,26.5 183.718,28.084 182.854,29.884 C182.062,31.504 180.262,34.204 179.434,36.04 C178.498,38.092 178.642,39.604 179.938,39.532 C181.45,39.46 183.286,37.084 184.69,34.564 C184.87,34.24 185.194,34.204 185.338,34.528 C185.482,34.816 185.518,35.788 185.014,36.796 C183.97,38.812 181.738,40.648 179.614,40.648 C177.274,40.648 176.338,39.172 176.626,37.084 Z M196.086,36.112 C195.114,38.2 195.078,39.676 196.302,39.604 C197.778,39.532 199.722,37.12 200.982,34.636 C201.162,34.312 201.414,34.312 201.558,34.6 C201.702,34.924 201.738,35.86 201.27,36.832 C200.298,38.812 198.066,40.72 196.086,40.612 C194.142,40.504 193.17,39.424 193.17,37.732 C192.018,39.172 190.398,40.504 188.706,40.504 C185.358,40.504 184.71,35.932 187.662,31.612 C190.506,27.436 193.386,25.816 195.186,25.816 C196.662,25.816 197.382,26.932 197.346,28.264 C199.29,24.556 202.026,19.66 203.322,17.824 C203.682,17.32 204.006,17.356 204.186,17.824 C204.69,19.012 204.582,20.56 203.07,23.26 C201.342,26.356 197.886,32.296 196.086,36.112 Z M195.762,27.652 C194.646,27.616 192.018,29.884 190.038,33.052 C188.094,36.148 187.698,39.28 189.102,39.316 C190.542,39.352 192.486,37.228 194.178,33.952 C196.266,29.956 196.806,27.688 195.762,27.652 Z" id="FalaFreud"></path>
                    <g id="symbol">
                        <path d="M56.5654684,9.90404981 C64.9907747,18.4575977 65.289151,30.6969297 57.2406405,39.5129268 C54.8727565,42.1086843 53.0824985,44.6967791 51.8564777,48.0798845 C49.446515,54.7330696 43.913164,58.0989338 37.0638968,59.8230532 C37.0386718,59.5279384 37.0386718,59.2312044 37.0638968,58.9360896 C38.7929495,50.9802364 38.5500405,50.7465225 30.2930491,50.3882888 C22.0743111,50.0319708 14.5498718,47.6431076 8.22850128,42.1508295 C-2.85158936,32.5225805 -2.72344054,17.4710182 8.50201293,7.97495179 C14.0908313,3.25469603 20.6264208,0.764301361 27.8199683,0.170438015 C38.7585214,-0.735682508 48.6680588,1.89455741 56.5654684,9.90404981 Z M53.0404197,23.2782659 L53.0404197,23.2782659 C53.29863,23.1958913 53.4019142,22.3855552 53.4229535,21.8932233 C53.4325169,21.6824976 53.0939745,21.3280953 52.8491529,21.2533835 C51.3190178,20.795534 49.769756,20.4564572 48.2587476,19.9717881 C44.6208515,18.8051339 41.0843268,18.8990027 37.6510862,20.6748456 C36.5857296,21.2227325 35.6791246,22.4411102 34.2599243,21.4411209 C34.1494037,21.4135414 34.0338152,21.4135414 33.9232946,21.4411209 C32.3262161,21.4430366 30.7291376,21.4353739 29.1320591,21.4545307 C28.8030801,21.4583621 28.4779264,21.6039544 28.1470347,21.6192799 C27.7147715,21.6384368 27.1600975,21.7591252 26.8636339,21.5483995 C23.6101842,19.2189226 20.0258427,18.718928 16.2234571,19.6020602 C14.421723,20.021596 12.6735437,20.6633515 10.9004997,21.1997442 C10.4471971,21.3357581 9.71655765,21.0139225 9.70508163,21.8759821 C9.69360562,22.5196534 9.48129938,23.2207953 10.4701492,23.5138956 C10.8354689,23.6211741 11.1434086,24.2763395 11.2715574,24.739936 C11.4513483,25.39127 11.4188329,26.098159 11.510641,26.7763126 C11.9601182,30.0617179 13.0484268,32.9773953 16.2081557,34.6593696 C19.7829338,36.5635637 24.5913833,35.6631902 26.7278344,32.4524968 C27.7587629,30.8969579 28.422459,29.0693914 29.0976311,27.3069582 C29.323326,26.7188419 29.1626618,25.9276627 29.0192117,25.2629189 C28.8547221,24.5081377 29.0096483,24.0464569 29.7995806,23.9679137 C30.3733812,23.910443 30.9471819,23.9564195 31.5209825,23.9564195 C32.0947832,23.9564195 32.5767757,23.9334313 33.1084977,23.9564195 C34.0839588,23.996649 34.3039157,24.439173 34.0284914,25.3836073 C33.8697399,25.925747 33.7320277,26.6115634 33.9232946,27.1077267 C34.5812527,28.8433402 35.197132,30.63834 36.1668552,32.1996259 C39.0932385,36.9160503 47.0327269,36.6899991 49.9017302,31.9352609 C51.0608075,30.0195727 51.5274987,27.9544608 51.7015515,25.7686606 C51.779971,24.7744184 51.7015515,23.701633 53.0404197,23.2782659 Z M43.1863498,20.0809823 C38.8101635,20.057994 35.4591677,23.1824815 35.4381283,27.3050425 C35.417089,31.4276036 38.6896654,34.7053461 42.8764975,34.7206716 C47.2125178,34.7359971 50.5807276,31.5559547 50.5883783,27.4410564 C50.601767,23.3606405 47.3196272,20.1039706 43.1863498,20.0809823 L43.1863498,20.0809823 Z M20.2917037,20.0771509 C15.9575961,20.0311744 12.625727,23.167156 12.5759976,27.3414406 C12.5262682,31.4410134 15.7950192,34.668948 20.0545328,34.7225873 C24.2624042,34.7762266 27.6573914,31.6287508 27.7185969,27.6345409 C27.7817149,23.4085327 24.5512172,20.1231274 20.2917037,20.0771509 L20.2917037,20.0771509 Z" id="Combined-Shape"></path>
                    </g>
                </g>
            </g>
        </g>
    </g>
</svg>